<svg xmlns="http://www.w3.org/2000/svg" width="512" height="512" viewBox="0 0 512 512" fill="none">
  <defs>
    <linearGradient id="bg" x1="64" y1="48" x2="448" y2="464" gradientUnits="userSpaceOnUse">
      <stop stop-color="#0f1419"/>
      <stop offset="1" stop-color="#1a1f2e"/>
    </linearGradient>
    <linearGradient id="shield" x1="156" y1="96" x2="356" y2="416" gradientUnits="userSpaceOnUse">
      <stop stop-color="#9b7bff"/>
      <stop offset="1" stop-color="#836EF9"/>
    </linearGradient>
    <linearGradient id="doc" x1="196" y1="168" x2="316" y2="328" gradientUnits="userSpaceOnUse">
      <stop stop-color="#ffffff"/>
      <stop offset="1" stop-color="#e8e4ff"/>
    </linearGradient>
    <filter id="shadow" x="-20%" y="-20%" width="140%" height="140%">
      <feDropShadow dx="0" dy="8" stdDeviation="12" flood-color="#836EF9" flood-opacity="0.35"/>
    </filter>
  </defs>
  <rect width="512" height="512" rx="112" fill="url(#bg)"/>
  <path filter="url(#shadow)" d="M256 88L128 144v112c0 88 57.6 170.4 128 192 70.4-21.6 128-104 128-192V144L256 88z" fill="url(#shield)"/>
  <rect x="176" y="168" width="160" height="200" rx="16" fill="url(#doc)"/>
  <rect x="200" y="200" width="112" height="12" rx="6" fill="#836EF9" opacity="0.35"/>
  <rect x="200" y="228" width="88" height="10" rx="5" fill="#836EF9" opacity="0.22"/>
  <rect x="200" y="252" width="96" height="10" rx="5" fill="#836EF9" opacity="0.22"/>
  <circle cx="256" cy="312" r="36" fill="#22c55e"/>
  <path d="M240 312l12 12 24-28" stroke="#fff" stroke-width="8" stroke-linecap="round" stroke-linejoin="round"/>
  <rect x="220" y="356" width="72" height="44" rx="10" fill="#836EF9"/>
  <circle cx="256" cy="378" r="10" fill="#fff" opacity="0.9"/>
</svg>
